/* XPM */
static char *arch_20[] = {
/* columns rows colors chars-per-pixel */
"20 20 2 1 ",
"  c None",
". c #1793D1",
/* pixels */
"                    ",
"         ..         ",
"         ..         ",
"         ...        ",
"        ....        ",
"        ....        ",
"        .....       ",
"       ......       ",
"      ........      ",
"      ........      ",
"     ..........     ",
"     ..........     ",
"    .....  .....    ",
"    ....    .....   ",
"   .....    .....   ",
"  ......    .....   ",
"  ......     .....  ",
" ....          .... ",
" ..              .. ",
"                    "
};
